<svg xmlns="http://www.w3.org/2000/svg" id="Layer_2" data-name="Layer 2" viewBox="0 0 568.13 429.91"><defs><style>      .cls-1, .cls-2 {        fill: #fff;      }      .cls-2 {        fill-rule: evenodd;      }    </style></defs><g id="Layer_1-2" data-name="Layer 1"><g><path class="cls-2" d="M240.57,200.75c-3.66,0-7.37-.93-10.77-2.89-10.32-5.96-13.86-19.15-7.9-29.47L311.4,13.37c5.96-10.32,19.16-13.85,29.47-7.9,10.32,5.96,13.85,19.15,7.9,29.47l-89.5,155.01c-4,6.92-11.25,10.79-18.7,10.79M407.86,203.33c-7.46,0-14.7-3.87-18.7-10.79-5.96-10.32-2.42-23.51,7.9-29.47l106.36-61.41-106.36-61.41c-10.31-5.96-13.86-19.16-7.9-29.47,5.96-10.32,19.16-13.85,29.47-7.9l138.72,80.09c6.67,3.86,10.78,10.98,10.78,18.68s-4.11,14.83-10.78,18.68l-138.72,80.1c-3.4,1.96-7.11,2.89-10.76,2.89ZM160.27,203.33c-3.66,0-7.37-.93-10.77-2.89L10.79,120.35c-6.68-3.85-10.79-10.98-10.79-18.68s4.11-14.83,10.79-18.68L149.5,2.89c10.32-5.95,23.51-2.42,29.47,7.9,5.96,10.32,2.42,23.51-7.9,29.47l-106.36,61.41,106.36,61.41c10.32,5.96,13.85,19.15,7.9,29.47-4,6.92-11.25,10.79-18.7,10.79Z"></path><path class="cls-1" d="M70.44,365.02c-9.76,0-18.93-1.76-27.51-5.27-8.58-3.51-16.03-8.42-22.34-14.73-6.31-6.31-11.32-13.79-15.02-22.44-3.71-8.65-5.56-18.05-5.56-28.19v-.39c0-9.89,1.82-19.15,5.46-27.8,3.64-8.65,8.65-16.19,15.02-22.63,6.37-6.44,13.95-11.48,22.73-15.12,8.78-3.64,18.37-5.46,28.78-5.46,7.02,0,13.4.68,19.12,2.05,5.72,1.37,10.96,3.32,15.71,5.85,4.75,2.54,9.04,5.56,12.88,9.07,3.84,3.51,7.25,7.35,10.24,11.51l-28.49,22.05c-3.9-4.94-8.19-8.85-12.88-11.71-4.68-2.86-10.34-4.29-16.97-4.29-4.81,0-9.2.94-13.17,2.83-3.97,1.89-7.38,4.46-10.24,7.71-2.86,3.25-5.11,7.09-6.73,11.51-1.63,4.42-2.44,9.11-2.44,14.05v.39c0,5.07.81,9.85,2.44,14.34,1.63,4.49,3.87,8.36,6.73,11.61,2.86,3.25,6.28,5.82,10.24,7.71,3.97,1.89,8.36,2.83,13.17,2.83,3.51,0,6.73-.39,9.66-1.17,2.93-.78,5.59-1.92,8-3.41,2.41-1.5,4.68-3.25,6.83-5.27,2.15-2.02,4.26-4.26,6.34-6.73l28.49,20.29c-3.25,4.42-6.8,8.52-10.63,12.29-3.84,3.77-8.19,7.02-13.07,9.76-4.88,2.73-10.34,4.88-16.39,6.44-6.05,1.56-12.84,2.34-20.39,2.34"></path><path class="cls-1" d="M212.18,330.88c5.2,0,9.98-.98,14.28-2.93,4.32-1.95,7.97-4.58,10.96-7.9,2.99-3.32,5.37-7.19,7.06-11.61,1.69-4.42,2.54-9.11,2.54-14.05v-.39c0-4.94-.85-9.63-2.54-14.05-1.69-4.42-4.13-8.32-7.25-11.71-3.12-3.38-6.83-6.08-11.15-8.1-4.29-2.02-9.07-3.02-14.28-3.02s-9.95.98-14.18,2.93c-4.26,1.95-7.9,4.59-10.96,7.9-3.06,3.32-5.43,7.19-7.06,11.61-1.63,4.42-2.44,9.11-2.44,14.05v.39c0,4.94.85,9.63,2.54,14.05,1.69,4.42,4.1,8.32,7.15,11.71,3.06,3.38,6.73,6.08,11.06,8.1,4.29,2.02,9.07,3.02,14.28,3.02M211.89,365.02c-10.54,0-20.29-1.85-29.27-5.56-8.98-3.71-16.71-8.75-23.22-15.12-6.5-6.37-11.61-13.85-15.32-22.44-3.71-8.59-5.56-17.76-5.56-27.51v-.39c0-9.76,1.85-18.96,5.56-27.61,3.71-8.65,8.88-16.19,15.51-22.63,6.63-6.44,14.44-11.51,23.41-15.22,8.98-3.71,18.73-5.56,29.27-5.56s20.29,1.85,29.27,5.56c8.98,3.71,16.71,8.75,23.22,15.12,6.5,6.37,11.61,13.85,15.32,22.44,3.71,8.58,5.56,17.76,5.56,27.51v.39c0,9.76-1.85,18.96-5.56,27.61-3.71,8.65-8.88,16.19-15.51,22.63-6.63,6.44-14.44,11.51-23.41,15.22-8.98,3.71-18.73,5.56-29.27,5.56Z"></path><path class="cls-1" d="M358.62,328.73c11.32,0,20.42-2.99,27.32-8.97,6.89-5.98,10.34-14.5,10.34-25.56v-.39c0-10.93-3.45-19.41-10.34-25.46-6.89-6.05-16-9.07-27.32-9.07h-15.41v69.46h15.41ZM305.35,225.71h52.62c12.19,0,23.09,1.66,32.62,4.98,9.56,3.32,17.59,7.97,24.16,13.95,6.57,5.98,11.54,13.11,14.99,21.37,3.45,8.26,5.17,17.33,5.17,27.22v.39c0,9.89-1.76,19.02-5.27,27.41-3.51,8.39-8.55,15.64-15.19,21.75-6.63,6.11-14.76,10.89-24.45,14.34-9.66,3.45-20.62,5.17-32.81,5.17h-51.83v-136.58Z"></path><polygon class="cls-1" points="454.61 225.71 564.26 225.71 564.26 257.9 491.88 257.9 491.88 278.59 557.44 278.59 557.44 308.44 491.88 308.44 491.88 330.1 565.24 330.1 565.24 362.29 454.61 362.29 454.61 225.71"></polygon><path class="cls-1" d="M178.08,403.37h-23.11v9.2h12.31c-1.65,4.4-5.66,7.09-11.79,7.09-8.96,0-14.49-5.71-14.49-13.53s5.79-13.79,13.57-13.79c5.2,0,9.35,2.36,11.26,5.39l8.96-5.12c-3.88-6.17-11.33-10.51-20.15-10.51-13.56,0-24.17,10.64-24.17,23.97s10.4,23.84,24.89,23.84c12.91,0,22.72-8.54,22.72-22.59v-3.94Z"></path><path class="cls-1" d="M216.01,392.87h7.9c2.9,0,5.27,2.56,5.27,5.91s-2.37,5.91-5.27,5.91h-7.9v-11.82ZM229.71,428.99h11.33l-9.81-16.88c5.07-2.56,8.49-7.68,8.49-13.33,0-8.73-7.05-15.76-15.8-15.76h-18.44v45.97h10.54v-15.11h5l8.69,15.11Z"></path><path class="cls-1" d="M288.77,419.66c-7.51,0-13.43-5.45-13.43-13.66s5.93-13.66,13.43-13.66,13.43,5.45,13.43,13.66-5.93,13.66-13.43,13.66M288.77,429.91c13.24,0,23.97-10.38,23.97-23.91s-10.73-23.91-23.97-23.91-23.97,10.38-23.97,23.91,10.73,23.91,23.97,23.91Z"></path><path class="cls-1" d="M357.26,429.91c10.14,0,17.78-5.91,17.78-15.76v-31.13h-10.54v30.21c0,3.48-1.65,6.44-7.24,6.44s-7.24-2.96-7.24-6.44v-30.21h-10.54v31.13c0,9.85,7.64,15.76,17.78,15.76"></path><path class="cls-1" d="M421.53,404.69h-6.91v-11.82h6.91c3.23,0,5.6,2.56,5.6,5.91s-2.37,5.91-5.6,5.91M421.53,383.01h-17.45v45.97h10.54v-14.45h6.91c9.09,0,16.13-7.03,16.13-15.76s-7.05-15.76-16.13-15.76Z"></path><rect class="cls-1" y="403.49" width="106.83" height="5.01"></rect><rect class="cls-1" x="458.41" y="403.49" width="106.83" height="5.01"></rect></g></g></svg>